<svg xmlns="http://www.w3.org/2000/svg" viewBox="0 0 512 512"><path d="M423.4 327.1c0-18.4-14.9-33.3-33.3-33.3H289.5c13.9-33.7 14-71.5.1-105.3-.1-.3-.3-.6-.4-.9-8.4-15.2-27.6-20.6-42.7-12.2-6 3.3-10.7 8.5-13.5 14.8-.4.8-.6 1.7-.7 2.7l-2.4 33.7c-3.6 19.4-14 36.8-29.5 49.1-6.2 2.2-17.5 9.8-47 37.9v-.8c0-9.2-7.5-16.7-16.7-16.7h-84c-9.2 0-16.7 7.5-16.7 16.7v167.6c0 9.2 7.5 16.7 16.7 16.7h84c9.2 0 16.7-7.5 16.7-16.7v-.7c23.1 5.1 35.1 11.1 49.2 24.2 5.5 5.3 12.9 8.2 20.5 8.1h130.2c18.4 0 33.3-14.9 33.3-33.2 0-7.8-2.7-15.3-7.7-21.3 10.4-6.2 17.8-17.4 17.8-29.3 0-7.4-2.5-14.6-7-20.4 10.6-6.3 18.2-17.8 18.2-30.1 0-6.9-2.2-13.7-6.2-19.3 13.1-5 21.7-17.4 21.7-31.3zM137.5 480.5c0 .4-.3.7-.7.7h-84c-.4 0-.7-.3-.7-.7V312.9c0-.4.3-.7.7-.7h84c.4 0 .7.3.7.7v167.6zm252.7-136.2h-27.8c-4.4 0-8 3.6-8 8s3.6 8 8 8h12.3c9.5 0 17.3 7.7 17.3 17.3 0 9-8.9 18.2-18 18.9-3.4-1.1-6.9-1.7-10.4-1.7-4.4 0-8 3.6-8 8s3.6 8 8 8c2 0 4 .4 5.9 1l.6.3c6.5 2.7 10.7 9 10.7 16 0 8.8-9.2 17.8-18.7 18.4-2.8-.8-5.8-1.2-8.7-1.2-4.4 0-8 3.6-8 8s3.6 8 8 8c1.7 0 3.3.2 4.9.7.2.1.4.1.6.2 9 3 13.9 12.8 10.9 21.9-2.4 7-9 11.8-16.4 11.8H223.2c-3.6.1-7.1-1.3-9.6-3.8-17-15.8-31.8-23-60.1-28.9V335.9l1.4-1.4c39.3-38.1 48.9-43.1 50.9-43.7 1.2-.2 2.3-.8 3.3-1.5 19.3-14.8 32.4-36.3 36.7-60.3 0-.3.1-.6.1-.8l2.3-32.6c4.1-7.5 13.4-10.3 20.9-6.2 2.4 1.3 4.5 3.3 5.9 5.7 13.5 33.4 11.6 71.1-5.2 103-2.1 3.9-.5 8.7 3.4 10.8 1.1.6 2.4.9 3.7.9h113.3c9.5.1 17.2 7.9 17.1 17.4-.1 9.4-7.7 17.1-17.1 17.1zm-279.8-5.8v1c0 4.4-3.6 8-8 8s-8-3.6-8-8v-1c0-4.4 3.6-8 8-8s8 3.5 8 8zm240-269.9c-1-3-3.7-5.2-6.9-5.5l-57.3-5.4-22.9-52.9c-1.8-4.1-6.5-5.9-10.5-4.2-1.9.8-3.4 2.3-4.2 4.2l-22.9 52.9-57.3 5.4c-4.4.4-7.6 4.3-7.2 8.7.2 2 1.1 3.9 2.7 5.3l43.2 38.1-12.6 56.2c-1 4.3 1.7 8.6 6.1 9.6 2 .4 4.1.1 5.8-.9l49.6-29.3 49.6 29.3c3.8 2.3 8.7 1 11-2.8 1-1.8 1.4-3.8.9-5.8l-12.6-56.2 43.2-38.1c2.4-2.3 3.3-5.6 2.3-8.6zm-59.7 37.7c-2.2 1.9-3.2 4.9-2.5 7.8l9.6 42.8-37.7-22.3c-2.5-1.5-5.6-1.5-8.1 0l-37.7 22.3 9.6-42.8c.6-2.8-.3-5.8-2.5-7.8l-32.9-29 43.6-4.1a8.1 8.1 0 006.6-4.8L256 28.2l17.4 40.2a8.1 8.1 0 006.6 4.8l43.6 4.1-32.9 29zm200.5 9.2c-1-3-3.7-5.2-6.9-5.5l-40.4-3.8-16.1-37.3c-1.8-4.1-6.5-5.9-10.5-4.2-1.9.8-3.4 2.3-4.2 4.2L397 106.2l-40.4 3.8c-4.4.4-7.6 4.3-7.2 8.7.2 2 1.1 3.9 2.7 5.3l30.5 26.8-8.9 39.6c-1 4.3 1.7 8.6 6.1 9.6 2 .4 4.1.1 5.8-.9l34.9-20.7 34.9 20.7c3.8 2.3 8.7 1 11-2.8 1-1.8 1.4-3.8.9-5.8l-8.9-39.6 30.5-26.8c2.4-2.3 3.3-5.6 2.3-8.6zm-46.9 26.4c-2.2 1.9-3.2 4.9-2.5 7.8l5.9 26.2-23.1-13.7c-2.5-1.5-5.6-1.5-8.1 0l-23.1 13.7 5.9-26.2c.6-2.8-.3-5.8-2.5-7.8l-20.1-17.7 26.7-2.5a8.1 8.1 0 006.6-4.8l10.6-24.6 10.6 24.6a8.1 8.1 0 006.6 4.8l26.7 2.5-20.2 17.7zm-289-31.9l-40.4-3.8-16.1-37.3c-1.8-4.1-6.5-5.9-10.5-4.2-1.9.8-3.4 2.3-4.2 4.2L68 106.2 27.6 110c-4.4.4-7.6 4.3-7.2 8.7.2 2 1.1 3.9 2.7 5.3l30.5 26.8-8.9 39.6c-1 4.3 1.7 8.6 6.1 9.6 2 .4 4.1.1 5.8-.9l34.9-20.7 34.9 20.7c3.8 2.3 8.7 1 11-2.8 1-1.8 1.4-3.8.9-5.8l-8.9-39.6 30.5-26.8c3.3-2.9 3.6-8 .7-11.3-1.4-1.7-3.2-2.6-5.3-2.8zm-40 31.9c-2.2 1.9-3.2 4.9-2.5 7.8l5.9 26.2-23.1-13.7c-2.5-1.5-5.6-1.5-8.2 0l-23.1 13.7 5.9-26.2c.6-2.8-.3-5.8-2.5-7.8l-20.1-17.7 26.7-2.5a8.1 8.1 0 006.6-4.8l10.6-24.6 10.6 24.6a8.1 8.1 0 006.6 4.8l26.7 2.5-20.1 17.7z" fill="#6b6b6b"/></svg>